<svg id="Layer_1" data-name="Layer 1" xmlns="http://www.w3.org/2000/svg" viewBox="0 0 1034.67 722.64"><defs><style>.cls-1{fill:#f9f9f9;}.cls-2{fill:#aea5b7;}.cls-3,.cls-5{fill:#fff;}.cls-4{fill:#58dd6e;}.cls-5{font-size:209.73px;stroke:#fff;stroke-miterlimit:10;stroke-width:4px;}.cls-5,.cls-7{font-family:KhmerWatPhnom, Khmer Wat Phnom;}.cls-6{letter-spacing:-0.02em;}.cls-7{font-size:50.27px;fill:#22ef6b;letter-spacing:-0.04em;}.cls-8{letter-spacing:0em;}</style></defs><title>Cms-logo-sample-2</title><polygon class="cls-1" points="516.8 352.8 399.2 352.8 340.25 264.38 281.45 176.18 340.25 87.98 399.05 176.18 516.8 352.8"/><polygon class="cls-2" points="398.9 352.8 634.1 0 751.7 0 516.5 352.8 398.9 352.8"/><polygon class="cls-3" points="820.7 352.35 703.1 352.35 659 286.2 717.8 198 820.7 352.35"/><polygon class="cls-4" points="516.5 0 399.05 176.18 340.25 264.38 281.3 352.8 163.7 352.8 281.45 176.18 340.25 87.98 398.9 0 516.5 0"/><text class="cls-5" transform="translate(2 572.45)">WEB<tspan class="cls-6" x="430.42" y="0">P</tspan><tspan x="541.23" y="0">ANEL</tspan></text><text class="cls-7" transform="translate(387.87 671.39)">W<tspan class="cls-8" x="43.47" y="0">eb Design</tspan></text></svg>