<svg id="Layer_1" data-name="Layer 1" xmlns="http://www.w3.org/2000/svg" xmlns:xlink="http://www.w3.org/1999/xlink" viewBox="0 0 611.84 783.43"><defs><style>.cls-1{fill:#ffff0d;}.cls-2{fill:url(#linear-gradient);}.cls-3{fill:url(#linear-gradient-2);}.cls-4{fill:url(#linear-gradient-3);}.cls-5{fill:#9400d3;}</style><linearGradient id="linear-gradient" x1="349.37" y1="791.84" x2="510.25" y2="791.84" gradientUnits="userSpaceOnUse"><stop offset="0" stop-color="#dfb0f7"/><stop offset="1" stop-color="#9f1ae5"/></linearGradient><linearGradient id="linear-gradient-2" x1="353.56" y1="791.84" x2="510.23" y2="791.84" gradientUnits="userSpaceOnUse"><stop offset="0" stop-color="#9400d3"/><stop offset="1" stop-color="#d792fc"/></linearGradient><linearGradient id="linear-gradient-3" x1="409.21" y1="830.11" x2="657.08" y2="830.11" gradientUnits="userSpaceOnUse"><stop offset="0" stop-color="#9400d3"/><stop offset="1" stop-color="#f3dcff"/></linearGradient></defs><title>Cms-logo-sample-1</title><path class="cls-1" d="M851.39,413.39q-3.23-11.28-3.22-16.81,0-3.21.92-18.87t.92-35q0-12.43-31.54-36.37t-86.09-40.74q-54.55-16.8-119-16.81-100.82,0-177.24,44.2T318.27,416.15q-41.43,79-41.43,169.19t42.35,174A323.5,323.5,0,0,0,363.72,826q8.69,10,18.2,19.21a302.2,302.2,0,0,0,24.81,21.56l0,0c9.59-10.95,19.77-21.58,29.84-32.75,1.76-1.94,3.51-3.89,5.25-5.87q3.76-4.26,7.46-8.65s0,0,0,0q-2.7-3-5.32-6.21a256.33,256.33,0,0,1-20.08-27.84,274.42,274.42,0,0,1-18.23-34.41q-30.3-68.31-30.29-163,0-130.95,63.37-213.71t177.2-82.76q88.48,0,137.8,42.93Q781.84,359,806.27,413q11.5,25.39,17.5,30.94t12,5.54q18.87,0,18.87-15.2A76.87,76.87,0,0,0,851.39,413.39Zm32.16,377.5a16.33,16.33,0,0,0-12.11-5.29q-7.46,0-21.43,12.48Q787.39,855.88,723.17,876T629,896.09q-58.86,0-105.48-21.13h0q-9.49-4.29-18.47-9.46a215.09,215.09,0,0,1-22-14.58c-2.72,3.49-5.62,7.09-8.73,10.84-7.79,9.42-16.91,19.8-27.71,31.62q8,4.52,16.32,8.56,9.3,4.54,19,8.49Q547,937.06,628.11,937.06q66.73,0,126.6-25.09t96.91-60.31q37.05-35.22,37.06-51.33Q888.68,796.19,883.55,790.89Z" transform="translate(-276.84 -248.8)"/><path class="cls-2" d="M506,699c-.43,2.62-.9,5.2-1.38,7.74s-1,5-1.55,7.43v0c-.36,1.63-.74,3.23-1.13,4.82q-1.46,6-3.13,11.62l-1,3.26c-.5,1.62-1,3.21-1.55,4.79h0c-.52,1.57-1.07,3.13-1.63,4.67-.37,1-.74,2-1.12,3.05s-.77,2-1.16,3c-.65,1.66-1.31,3.29-2,4.9-.09.25-.2.5-.31.75q-.46,1.13-1,2.22-1.08,2.49-2.22,4.92c-.35.75-.7,1.5-1.06,2.24-.73,1.52-1.48,3-2.23,4.51q-1.56,3.06-3.18,6s0,0,0,0q-1.62,3-3.3,5.82a265.07,265.07,0,0,1-21.86,31.47q-2.94,3.7-6,7.29c-2.46,2.94-5,5.83-7.44,8.67-1.74,2-3.49,3.93-5.25,5.87-10.07,11.17-20.25,21.8-29.84,32.75-5.71,6.52-11.21,13.15-16.36,20.08l-1.84,2.52c-.41.57-.83,1.15-1.23,1.73q-4.28,6-8.13,12.45c-.38.61-.75,1.24-1.11,1.86q-1.17,2-2.28,4c-.37.66-.73,1.32-1.08,2-.82,1.55-1.63,3.12-2.41,4.7-1.22,2.5-2.4,5-3.51,7.65-.39.9-.77,1.81-1.14,2.72s-.75,1.84-1.1,2.77q-1.08,2.79-2.07,5.67c-.32,1-.65,1.92-1,2.9-.2.61-.39,1.22-.58,1.84q-.57,1.84-1.11,3.72c-.35,1.26-.7,2.53-1,3.81s-.64,2.57-1,3.88c-.16.66-.3,1.32-.45,2a.17.17,0,0,0,0,.07c-.23,1.05-.45,2.1-.66,3.16s-.43,2.17-.62,3.27-.39,2.2-.57,3.32-.34,2.08-.48,3.13a3,3,0,0,0-.06.42c-.15,1-.29,2.07-.42,3.11l0,.24c-.14,1.13-.27,2.27-.39,3.43s-.23,2.27-.33,3.42-.21,2.5-.3,3.77c-10.82-62.82-6.55-110,6.2-148.73.64-1.92,1.29-3.83,2-5.71,10.26-28.54,25.19-52.48,41.93-75,4.3-5.78,8.73-11.47,13.23-17.12,31.81-39.71,67.18-77.17,89.57-130.76.08.9.15,1.79.22,2.68C511.59,642.31,510.31,672.85,506,699Z" transform="translate(-276.84 -248.8)"/><path class="cls-3" d="M506,699c-.43,2.62-.9,5.2-1.38,7.74s-1,5-1.55,7.43v0c-.37,1.62-.74,3.23-1.13,4.82q-1.46,6-3.13,11.62l-1,3.26c-.51,1.62-1,3.21-1.55,4.79h0c-.53,1.57-1.08,3.13-1.63,4.67-.37,1-.74,2-1.12,3.05s-.77,2-1.16,3c-.65,1.66-1.31,3.29-2,4.9-.09.25-.2.5-.31.75q-.46,1.13-1,2.22-1.08,2.49-2.22,4.92c-.35.75-.7,1.5-1.06,2.24-.72,1.52-1.47,3-2.23,4.51q-1.56,3.06-3.18,6s0,0,0,0q-1.62,3-3.3,5.82-1.32,2.24-2.67,4.43c-.78,1.27-1.58,2.53-2.38,3.77l-.18.28a291.14,291.14,0,0,1-22.58,30.3q-3.69,4.39-7.46,8.65c-1.74,2-3.49,3.93-5.25,5.87-10.09,11.15-20.27,21.77-29.86,32.73-5.71,6.52-11.2,13.16-16.34,20.1-.62.83-1.24,1.67-1.84,2.52-.42.57-.83,1.15-1.23,1.73q-4.28,6-8.13,12.45c-.38.61-.75,1.24-1.11,1.86q-1.17,2-2.28,4c-.37.66-.73,1.32-1.08,2-.82,1.55-1.63,3.12-2.41,4.7-1.22,2.5-2.4,5-3.51,7.65-.39.9-.77,1.8-1.14,2.72s-.75,1.84-1.1,2.77q-1.08,2.79-2.07,5.67c-.33,1-.65,1.92-1,2.9-.2.61-.39,1.22-.58,1.84-.39,1.22-.76,2.47-1.11,3.72s-.7,2.52-1,3.81-.65,2.57-1,3.88c-.16.66-.3,1.32-.45,2a.17.17,0,0,0,0,.07c-.24,1-.46,2.1-.66,3.16s-.43,2.17-.62,3.27-.4,2.2-.57,3.32-.34,2.08-.48,3.13a3,3,0,0,0-.06.42c-.15,1-.29,2.06-.42,3.11l0,.24c-.14,1.13-.27,2.27-.39,3.43s-.23,2.27-.33,3.42-.21,2.5-.3,3.77c-7.1-56.58,5.65-98.72,26.38-135.23,12.06-21.25,26.83-40.59,42-59.76,40.3-51.06,83.2-100.9,84.57-182.29.08.9.15,1.79.22,2.68C511.57,642.31,510.29,672.84,506,699Z" transform="translate(-276.84 -248.8)"/><path class="cls-4" d="M559.73,860c43.69-42.8,50.29-114.56,50.94-123.4a6.4,6.4,0,0,1,0-.64q-1.28,4.26-2.62,8.38c-.21.65-.42,1.3-.65,1.94s-.52,1.55-.78,2.32a2.82,2.82,0,0,1-.14.41c-.17.53-.36,1.06-.55,1.59-.39,1.14-.79,2.27-1.2,3.4l-.73,2q-1.74,4.73-3.59,9.27c-.08.21-.16.41-.25.61-.33.83-.67,1.66-1,2.48-.21.52-.43,1-.66,1.57-.47,1.11-1,2.22-1.43,3.32s-.93,2.1-1.4,3.14-.94,2.07-1.42,3.09-1.06,2.27-1.61,3.4c-.32.67-.64,1.34-1,2q-.9,1.85-1.83,3.66c-.43.85-.87,1.7-1.31,2.54-.57,1.11-1.16,2.21-1.75,3.31l-1.5,2.76c-1.2,2.17-2.41,4.31-3.66,6.42-.41.71-.82,1.41-1.24,2.1-.27.46-.54.91-.82,1.36s-.54.91-.82,1.35c-1.11,1.82-2.24,3.61-3.39,5.39-.57.89-1.14,1.77-1.72,2.64q-2,3-4.05,6c-.5.72-1,1.44-1.51,2.15s-1,1.42-1.53,2.13l-1.82,2.49-1.84,2.46q-.93,1.23-1.86,2.43c-.62.81-1.25,1.61-1.88,2.41s-1.26,1.59-1.9,2.38l-1.68,2.08c-.72.88-1.44,1.75-2.17,2.61q-1.93,2.31-3.92,4.59c-.65.76-1.31,1.51-2,2.26l-2,2.24q-3,3.34-6.11,6.59c-.68.72-1.37,1.44-2.06,2.15q-2.09,2.14-4.18,4.26c-.74.75-1.49,1.49-2.24,2.23l-2,2-2.14,2.07-2.15,2-1.09,1c-9,8.48-18.4,16.57-28,24.47q-4.3,3.55-8.67,7l-2.91,2.33c-.69.54-1.37,1.09-2,1.63l-1,.8q-7.9,6.45-14.65,12.87-2,1.94-3.93,3.85c-.84.85-1.67,1.71-2.48,2.56l-1.21,1.28L457.53,933c-.55.61-1.1,1.21-1.63,1.81s-1.06,1.2-1.57,1.8l-1,1.2-1,1.2q-1.79,2.18-3.4,4.33c-.3.39-.6.79-.87,1.18s-.59.79-.86,1.18c-.41.56-.8,1.13-1.19,1.69l-.44.66-.78,1.18c-.27.4-.52.79-.76,1.18-.74,1.18-1.45,2.35-2.12,3.52-.46.78-.89,1.57-1.3,2.35-.22.39-.42.78-.61,1.17a71.45,71.45,0,0,0-3.58,8.17c-.29.77-.55,1.55-.8,2.32a59.48,59.48,0,0,0-1.56,5.92c-.08.34-.15.68-.2,1s-.09.49-.13.73a5.15,5.15,0,0,0-.09.52q-.13.84-.24,1.68c-.08.56-.14,1.12-.19,1.67,0,.27,0,.55-.07.82,0,.63-.09,1.25-.11,1.87s0,1.25,0,1.87v0c0,.51,0,1,0,1.54s0,.73,0,1.1,0,.51,0,.76c.09,1.3.24,2.61.45,3.91l.12.74c.07.41.14.82.23,1.23.21,1,.45,2,.73,3.06a47.3,47.3,0,0,0,1.49,4.6c.58,1.52,1.24,3,2,4.54l.12.26.65,1.27c.54,1,1.1,2,1.71,3,0,0,0,0,0,0,.61,1,1.25,2,1.93,3l.16.24c.28.43.59.85.89,1.27.73,1,1.48,2,2.27,3,.39.5.8,1,1.22,1.49s.73.86,1.11,1.29l.17.19c.38.43.76.86,1.16,1.28s1,1.12,1.58,1.67,1,1,1.45,1.47c1,1,2,2,3.09,2.93.4.36.8.73,1.22,1.09l1.06.93c.91.78,1.84,1.56,2.8,2.34C387,1004,408.12,948.12,428.59,916.4A158.07,158.07,0,0,1,444.21,896l2.4-2.61c10.8-11.82,19.92-22.2,27.71-31.62,3.11-3.75,6-7.35,8.73-10.84,20.17-25.86,30.13-45.28,40.07-71.39,36.35-95.55,74.1-127.06,134-151.53C646.21,696,689.67,814.62,559.73,860Z" transform="translate(-276.84 -248.8)"/><path class="cls-5" d="M610.7,735.92V736c-25,83.64-72.66,129.85-126.77,172.81s-70.18,85.36-23.24,123.45c-85.27-49.55-19-115,33-157.37C549.64,829.39,584.73,792.07,610.7,735.92Z" transform="translate(-276.84 -248.8)"/></svg>